<svg width="24" height="22" viewBox="0 0 24 22" fill="none" xmlns="http://www.w3.org/2000/svg">
<path d="M11.495 1.71393C11.7015 1.29539 12.2984 1.29539 12.5049 1.71393L15.1789 7.13206C15.261 7.29826 15.4195 7.41346 15.6029 7.44012L21.5822 8.30895C22.0441 8.37607 22.2285 8.94369 21.8943 9.26948L17.5677 13.4869C17.4349 13.6163 17.3744 13.8027 17.4057 13.9854L18.4271 19.9404C18.506 20.4005 18.0231 20.7513 17.61 20.5341L12.262 17.7225C12.0979 17.6362 11.902 17.6362 11.7379 17.7225L6.38989 20.5341C5.97676 20.7513 5.49392 20.4005 5.57282 19.9404L6.5942 13.9854C6.62553 13.8027 6.56496 13.6163 6.43224 13.4869L2.10561 9.26948C1.77138 8.94369 1.95581 8.37607 2.41771 8.30895L8.39696 7.44012C8.58038 7.41346 8.73894 7.29826 8.82097 7.13206L11.495 1.71393Z" stroke="#365FFF" stroke-width="2" stroke-linejoin="round"/>
</svg>
